<svg id="OBJECTS" xmlns="http://www.w3.org/2000/svg" xmlns:xlink="http://www.w3.org/1999/xlink" viewBox="0 0 1057.81984 1185.22425"><defs><style>.cls-1{fill:#3f0d16;}.cls-2{fill:#db5a19;}.cls-3{fill:#771523;}.cls-4{fill:#5a151c;}.cls-5,.cls-8{fill:#fff;}.cls-6{fill:url(#Degradado_sin_nombre_2);}.cls-7{fill:#470404;stroke:#470404;}.cls-7,.cls-8{stroke-miterlimit:10;stroke-width:10px;}.cls-8{stroke:#5a151c;}</style><linearGradient id="Degradado_sin_nombre_2" x1="863.52088" y1="472.16808" x2="857.03976" y2="659.72474" gradientUnits="userSpaceOnUse"><stop offset="0.15989" stop-color="#fff"/><stop offset="0.49438" stop-color="#fff"/><stop offset="0.49476" stop-color="#f7f7f9"/><stop offset="0.49536" stop-color="#e0e2e8"/><stop offset="0.49555" stop-color="#d7dae1"/><stop offset="0.65875" stop-color="#dfe2e7"/><stop offset="0.91682" stop-color="#f6f7f8"/><stop offset="1" stop-color="#fff"/></linearGradient></defs><path class="cls-1" d="M737.73876,1359.421a100.33948,100.33948,0,0,1-50.82534-13.83751c-205.51326-120.905-347.3604-296.36655-421.606-521.51389-61.5054-186.5084-59.89689-362.24473-53.46365-450.40006,3.774-51.80857,47.40185-92.39311,99.32054-92.39311a100.80428,100.80428,0,0,1,14.01949.98366,585.57524,585.57524,0,0,0,81.49353,5.91852c132.35279-.00869,217.86938-49.03562,266.30146-90.16449a99.94513,99.94513,0,0,1,129.51589,0c48.44077,41.13282,133.9613,90.16449,266.3062,90.16449a586.05993,586.05993,0,0,0,81.49357-5.91852,100.79476,100.79476,0,0,1,14.01944-.98366c51.914,0,95.54223,40.58454,99.32015,92.39311,6.43364,88.15927,8.03781,263.89955-53.46326,450.40006-74.246,225.14734-216.09307,400.60894-421.60242,521.51389A100.36367,100.36367,0,0,1,737.73876,1359.421Z" transform="translate(-208.8288 -174.19673)"/><path class="cls-2" d="M1155.12706,316.50411c-196.1176,27.68726-316.717-42.62685-375.01332-92.1314a65.37091,65.37091,0,0,0-84.75042,0C637.06743,273.87726,516.468,344.19137,320.3504,316.50411a65.10683,65.10683,0,0,0-74.01862,59.6802c-13.34529,182.90337-1.181,669.38059,458.11261,939.59024a65.685,65.685,0,0,0,66.58868,0c459.294-270.20965,471.45754-756.68687,458.113-939.59024A65.10758,65.10758,0,0,0,1155.12706,316.50411Z" transform="translate(-208.8288 -174.19673)"/><path class="cls-3" d="M737.73952,1281.6122a22.49726,22.49726,0,0,1-11.38071-3.09426c-434.89525-255.8574-450.42534-714.06278-436.91309-899.18727a21.80374,21.80374,0,0,1,24.86419-20.02208,663.634,663.634,0,0,0,92.36825,6.67837c155.97554-.00869,258.29758-59.09956,316.66649-108.66687a22.14562,22.14562,0,0,1,28.79013.00434C810.51159,306.89569,912.838,365.987,1068.80129,365.987a664.0403,664.0403,0,0,0,92.36824-6.68232,22.59166,22.59166,0,0,1,3.14478-.21986,21.88719,21.88719,0,0,1,21.719,20.24589c13.50831,185.12844-2.03047,643.33815-436.9174,899.18727A22.46991,22.46991,0,0,1,737.73952,1281.6122Z" transform="translate(-208.8288 -174.19673)"/><path class="cls-4" d="M1001.006,865.999a18.73843,18.73843,0,0,1-16.614-27.40674l32.43256-62.13564-42.61829-32.36485A18.73622,18.73622,0,0,1,984.33379,710.473l69.2625-4.45828,34.86908-66.811a18.737,18.737,0,0,1,35.18892,6.23643l7.27929,55.59435,62.282-4.00746c.40558-.02722.81115-.03947,1.21367-.03947a18.7358,18.7358,0,0,1,10.52731,34.2284l-64.34011,43.75571,8.06288,61.547a18.73694,18.73694,0,0,1-29.91029,17.3551l-44.49065-33.78369-62.7389,42.66419A18.69162,18.69162,0,0,1,1001.006,865.999Z" transform="translate(-208.8288 -174.19673)"/><polygon class="cls-5" points="896.249 473.677 905.807 546.663 985.593 541.528 911.714 591.771 921.271 664.756 866.053 622.822 792.174 673.066 831.927 596.906 776.709 554.972 856.496 549.837 896.249 473.677"/><polygon class="cls-6" points="881.151 573.371 831.927 596.906 792.174 673.066 866.053 622.822 921.271 664.756 911.714 591.771 881.151 573.371"/><path class="cls-7" d="M342.09926,1155.56574a89.82437,89.82437,0,0,0,19.40234-4.94922q4.57764-1.522,7.00049.085,2.41773,1.60548,2.34033,6.06348l.17432,24.44336a10.843,10.843,0,0,1-2.15772,6.94043,16.37133,16.37133,0,0,1-6.30029,4.27539,120.74212,120.74212,0,0,1-28.63428,7.36621q-33.79394,4.19385-51.44091-7.4375-17.64771-11.63085-22.03418-46.99023-2.40747-19.39746-1.04883-51.97657,2.54223-46.06786,11.563-71.96972,9.01317-25.8999,25.20019-37.59863,16.18287-11.69679,44.65723-15.23243a146.64359,146.64359,0,0,1,31.09179-.3623q8.68066.82764,7.85206,9.51074l-2.32959,24.75293q-.71265,9.61964-10.09766,8.24219a153.43981,153.43981,0,0,0-19.00733.45312q-22.22094,2.75684-30.22753,17.57129-8.01344,14.81544-10.51416,58.6543-1.08252,29.68067.39257,41.57324,2.17456,17.52685,9.854,23.082Q325.51015,1157.62775,342.09926,1155.56574Z" transform="translate(-208.8288 -174.19673)"/><path class="cls-7" d="M460.0392,953.7923q29.40821-3.64891,45.84766,8.44922,16.43189,12.10254,20.82177,47.457,2.48511,20.03028.93164,51.03907-2.23315,46.02978-11.03564,72.38086-8.80737,26.35107-23.30322,37.52343-14.50416,11.1753-38.90674,14.2002-29.41553,3.65038-46.00391-8.42969-16.59154-12.0747-20.939-47.127-2.40675-19.396-.93213-51.03711,2.54223-46.06786,11.3291-72.57617,8.781-26.50488,23.28418-37.67969Q435.63051,956.826,460.0392,953.7923Zm-6.46631,188.57715q12.82691-1.59081,18.2793-16.56543,5.44629-14.97509,7.60107-59.08691,1.51318-36.40722-.07324-49.23828-1.6311-13.14258-5.98779-17.52637-4.355-4.38135-12.4917-3.375-8.76417,1.08839-13.71436,7.26172-4.95264,6.17724-8.05664,22.12891-3.10547,15.95506-4.42236,46.30078-1.52124,36.40869.07324,49.23828,1.593,12.835,5.96826,17.37012Q445.12416,1143.4212,453.57289,1142.36945Z" transform="translate(-208.8288 -174.19673)"/><path class="cls-7" d="M692.62855,933.45539l-10.58691,211.70117q-.20581,8.6045-8.33887,9.61426l-26.28418,3.26074q-8.76415,1.08839-11.21972-5.9209L596.62514,1041.306l-5.88428,115.13476q-.501,8.68653-7.97168,9.61328l-28.94824,3.5918q-9.03516,1.12061-8.51953-7.52246l10.65918-208.47852q.19921-8.60156,8.35449-9.61425l26.63086-3.30469q8.45508-1.04883,11.19482,5.60058l39.23975,111.11524L647.026,942.345q.51415-8.64111,8.33984-9.61231l28.78711-3.57226Q692.90981,928.07356,692.62855,933.45539Z" transform="translate(-208.8288 -174.19673)"/><path class="cls-7" d="M709.73891,961.25227l1.43213-26.86622q.51342-8.64111,8.33935-9.61328l97.084-12.04589q9.07178-1.12647,8.55761,7.51562l-1.43261,26.86719q-.20508,8.603-8.3379,9.6123l-25.65918,3.18457L780.567,1132.81672q-.17579,8.72022-8.22168,9.71387l-30.00976,3.72363q-8.99121,1.11621-8.47754-7.54688l9.15869-173.00586-24.71924,3.06739Q709.53335,969.85579,709.73891,961.25227Z" transform="translate(-208.8288 -174.19673)"/><path class="cls-7" d="M852.77406,908.23664l48.24707-5.98633q33.92579-4.21,50.90918,5.28028,16.98048,9.49511,20.35742,36.71289a150.15769,150.15769,0,0,1,.55762,27.582q-1.17187,29.06835-10.00683,46.374a58.46243,58.46243,0,0,1-26.21094,26.13281L963.32,1108.37727q4.40186,9.90819-5.59668,11.15039l-29.05664,3.60547q-8.75536,1.0869-11.51562-5.86915l-22.98731-60.0664-10.6416,1.375-3.27832,61.96q-.18018,8.63232-8.16895,9.62305l-29.82421,3.70019q-8.94581,1.11036-8.41114-7.415L844.4977,917.95637Q844.68373,909.24347,852.77406,908.23664Zm32.94727,108.80859,12.28222-1.52441q15.10693-1.87353,20.51465-9.86328,5.39941-7.98341,6.41407-28.165a128.64437,128.64437,0,0,0-.48633-16.80273q-1.20411-9.71046-6.38477-13.04981-5.17968-3.334-16.75683-1.89648l-11.89063,1.47558Z" transform="translate(-208.8288 -174.19673)"/><path class="cls-7" d="M1063.00063,878.974q29.40819-3.64893,45.84667,8.44921,16.43262,12.104,20.82227,47.458,2.48438,20.03028.93066,51.03906-2.23242,46.02832-11.03515,72.37989-8.80665,26.35254-23.30274,37.52343-14.50488,11.17677-38.90625,14.2002-29.41552,3.65038-46.00488-8.42969-16.59082-12.0747-20.93848-47.12695-2.40819-19.39453-.93164-51.03613,2.54151-46.06788,11.32813-72.57715,8.78174-26.50488,23.28516-37.67969Q1038.59047,882.00763,1063.00063,878.974Zm-6.4668,188.57714q12.82617-1.59081,18.27832-16.56543,5.44775-14.97509,7.60156-59.08691,1.51318-36.40722-.07324-49.2373-1.63038-13.14258-5.98731-17.52735-4.35643-4.38135-12.49121-3.374-8.76562,1.08691-13.71484,7.26172-4.95264,6.17724-8.05664,22.1289-3.10694,15.95508-4.42188,46.30078-1.522,36.40871.07227,49.23731,1.59228,12.835,5.96777,17.37012Q1048.08559,1068.60284,1056.53383,1067.55109Z" transform="translate(-208.8288 -174.19673)"/><path class="cls-7" d="M1206.19008,872.96223l-8.80762,172.34668,44.11914-5.47461q9.07177-1.125,8.24512,7.55468l-1.35449,27.49219q-.52149,8.644-8.33887,9.61426l-82.76367,10.26953q-8.99855,1.11621-8.46778-7.42969l10.65332-208.48242q.17433-8.68945,8.22559-9.69336l30.01465-3.72461Q1206.70668,864.32014,1206.19008,872.96223Z" transform="translate(-208.8288 -174.19673)"/><path class="cls-8" d="M348.09926,1149.56574a89.82437,89.82437,0,0,0,19.40234-4.94922q4.57764-1.522,7.00049.085,2.41773,1.60548,2.34033,6.06348l.17432,24.44336a10.843,10.843,0,0,1-2.15772,6.94043,16.37133,16.37133,0,0,1-6.30029,4.27539,120.74212,120.74212,0,0,1-28.63428,7.36621q-33.79394,4.19385-51.44091-7.4375-17.64771-11.63085-22.03418-46.99023-2.40747-19.39746-1.04883-51.97657,2.54223-46.06786,11.563-71.96972,9.01317-25.8999,25.20019-37.59863,16.18287-11.69679,44.65723-15.23243a146.64359,146.64359,0,0,1,31.09179-.3623q8.68066.82764,7.85206,9.51074l-2.32959,24.75293q-.71265,9.61964-10.09766,8.24219a153.43981,153.43981,0,0,0-19.00733.45312q-22.22094,2.75684-30.22753,17.57129-8.01344,14.81544-10.51416,58.6543-1.08252,29.68067.39257,41.57324,2.17456,17.52685,9.854,23.082Q331.51015,1151.62775,348.09926,1149.56574Z" transform="translate(-208.8288 -174.19673)"/><path class="cls-8" d="M466.0392,947.7923q29.40821-3.64891,45.84766,8.44922,16.43189,12.10254,20.82177,47.457,2.48511,20.03028.93164,51.03907-2.23315,46.02978-11.03564,72.38086-8.80737,26.35107-23.30322,37.52343-14.50416,11.1753-38.90674,14.2002-29.41553,3.65038-46.00391-8.42969-16.59154-12.0747-20.939-47.127-2.40675-19.396-.93213-51.03711,2.54223-46.06786,11.3291-72.57617,8.781-26.50488,23.28418-37.67969Q441.63051,950.826,466.0392,947.7923Zm-6.46631,188.57715q12.82691-1.59081,18.2793-16.56543,5.44629-14.97509,7.60107-59.08691,1.51318-36.40722-.07324-49.23828-1.6311-13.14258-5.98779-17.52637-4.355-4.38135-12.4917-3.375-8.76417,1.08839-13.71436,7.26172-4.95264,6.17724-8.05664,22.12891-3.10547,15.95507-4.42236,46.30078-1.52124,36.40869.07324,49.23828,1.593,12.835,5.96826,17.37012Q451.12416,1137.4212,459.57289,1136.36945Z" transform="translate(-208.8288 -174.19673)"/><path class="cls-8" d="M698.62855,927.45539l-10.58691,211.70117q-.20581,8.6045-8.33887,9.61426l-26.28418,3.26074q-8.76415,1.08839-11.21972-5.9209L602.62514,1035.306l-5.88428,115.13476q-.501,8.68653-7.97168,9.61328l-28.94824,3.5918q-9.03516,1.12061-8.51953-7.52246l10.65918-208.47852q.19921-8.60156,8.35449-9.61425l26.63086-3.30469q8.45508-1.04883,11.19482,5.60058l39.23975,111.11524L653.026,936.345q.51415-8.64111,8.33984-9.61231l28.78711-3.57226Q698.90981,922.07356,698.62855,927.45539Z" transform="translate(-208.8288 -174.19673)"/><path class="cls-8" d="M715.73891,955.25227l1.43213-26.86622q.51342-8.64111,8.33935-9.61328l97.084-12.04589q9.07178-1.12647,8.55761,7.51562l-1.43261,26.86719q-.20508,8.603-8.3379,9.6123l-25.65918,3.18457L786.567,1126.81672q-.17579,8.72022-8.22168,9.71387l-30.00976,3.72363q-8.99121,1.11621-8.47754-7.54688l9.15869-173.00586-24.71924,3.06739Q715.53335,963.85579,715.73891,955.25227Z" transform="translate(-208.8288 -174.19673)"/><path class="cls-8" d="M858.77406,902.23664l48.24707-5.98633q33.92579-4.21,50.90918,5.28028,16.98048,9.49511,20.35742,36.71289a150.15769,150.15769,0,0,1,.55762,27.582q-1.17187,29.06835-10.00683,46.374a58.46243,58.46243,0,0,1-26.21094,26.13281L969.32,1102.37727q4.40186,9.90819-5.59668,11.15039l-29.05664,3.60547q-8.75536,1.0869-11.51562-5.86915l-22.98731-60.0664-10.6416,1.375-3.27832,61.96q-.18018,8.63232-8.16895,9.62305l-29.82421,3.70019q-8.94581,1.11036-8.41114-7.415L850.4977,911.95637Q850.68373,903.24347,858.77406,902.23664Zm32.94727,108.80859,12.28222-1.52441q15.10693-1.87353,20.51465-9.86328,5.39941-7.98341,6.41407-28.165a128.64437,128.64437,0,0,0-.48633-16.80273q-1.20411-9.71046-6.38477-13.04981-5.17968-3.334-16.75683-1.89648l-11.89063,1.47558Z" transform="translate(-208.8288 -174.19673)"/><path class="cls-8" d="M1069.00063,872.974q29.40819-3.64893,45.84667,8.44921,16.43262,12.104,20.82227,47.458,2.48438,20.03028.93066,51.03906-2.23242,46.02832-11.03515,72.37989-8.80665,26.35254-23.30274,37.52343-14.50488,11.17677-38.90625,14.2002-29.41552,3.65038-46.00488-8.42969-16.59082-12.0747-20.93848-47.12695-2.40819-19.39453-.93164-51.03613,2.54151-46.06788,11.32813-72.57715,8.78174-26.50488,23.28516-37.67969Q1044.59047,876.00763,1069.00063,872.974Zm-6.4668,188.57714q12.82617-1.59081,18.27832-16.56543,5.44775-14.97509,7.60156-59.08691,1.51318-36.40722-.07324-49.2373-1.63038-13.14258-5.98731-17.52735-4.35643-4.38135-12.49121-3.374-8.76562,1.08691-13.71484,7.26172-4.95264,6.17724-8.05664,22.1289-3.10694,15.95508-4.42188,46.30078-1.522,36.40871.07227,49.23731,1.59228,12.835,5.96777,17.37012Q1054.08559,1062.60284,1062.53383,1061.55109Z" transform="translate(-208.8288 -174.19673)"/><path class="cls-8" d="M1212.19008,866.96223l-8.80762,172.34668,44.11914-5.47461q9.07177-1.125,8.24512,7.55468l-1.35449,27.49219q-.52149,8.644-8.33887,9.61426l-82.76367,10.26953q-8.99855,1.11621-8.46778-7.42969l10.65332-208.48242q.17433-8.68945,8.22559-9.69336l30.01465-3.72461Q1212.70668,858.32014,1212.19008,866.96223Z" transform="translate(-208.8288 -174.19673)"/><path class="cls-7" d="M551.50893,886.03352l-86.40284,10.7207q-12.11938,1.50439-11.41259-9.97363l13.81689-278.75977q1.10816-11.60668,11.14893-12.853l73.62988-9.13623q81.15747-10.07079,88.53223,49.335a97.22865,97.22865,0,0,1-5.56006,47.63037q-8.67335,22.53076-31.16992,36.36426,13.95557,2.94654,23.959,16.77979,10.00122,13.84277,12.59619,34.75781,5.762,46.437-17.47558,77.78125Q599.93055,880.02619,551.50893,886.03352Zm-33.90137-52.291,27.19336-3.374q19.65966-2.44044,27.67529-16.60254,8.01049-14.15625,5.41748-35.08106-2.85424-23.0039-28.78662-19.792l-28.0166,3.47656Zm6.11377-125.22412,23.01562-2.856q17.57081-2.18042,25.37354-14.61719,7.80468-12.43944,5.47217-31.26367-2.543-20.49316-27.08252-17.45459l-23.68946,2.93994Z" transform="translate(-208.8288 -174.19673)"/><path class="cls-7" d="M801.59926,730.53645l-69.19776,8.58642-3.36767,66.26026,73.21191-9.085q12.12891-1.5044,11.44239,10.05079l-1.915,35.92089q-1.10889,11.606-11.14942,12.85157L675.59584,870.63605q-12.12891,1.5044-11.43408-10.0371L678.359,581.85773q.26514-11.50194,11.11621-12.84912L813.20961,553.6551q11.707-1.45239,11.02441,10.10205l-1.915,35.92041q-.27538,11.50488-11.14941,12.853l-72.793,9.03271-3.08789,60.70264,67.77344-8.40918q11.2954-1.40185,11.44238,10.0498l-2.1748,33.82862Q812.47768,729.18585,801.59926,730.53645Z" transform="translate(-208.8288 -174.19673)"/><path class="cls-7" d="M843.77992,597.01447l1.916-35.92041q.68555-11.55468,11.14844-12.85351l129.80078-16.106q12.12889-1.50513,11.4414,10.0498L996.1725,578.1048q-.27539,11.5049-11.14941,12.85352l-34.30469,4.25635L938.47816,826.39484q-.23583,11.65724-10.99316,12.98536L887.362,844.35871q-12.0205,1.49268-11.334-10.08887L888.27309,602.9632l-33.04981,4.10108Q843.50453,608.51814,843.77992,597.01447Z" transform="translate(-208.8288 -174.19673)"/><path class="cls-8" d="M557.50893,880.03352l-86.40284,10.7207q-12.11938,1.50439-11.41259-9.97363l13.81689-278.75977q1.10816-11.60668,11.14893-12.853l73.62988-9.13623q81.15747-10.07079,88.53223,49.335a97.22865,97.22865,0,0,1-5.56006,47.63037q-8.67335,22.53076-31.16992,36.36426,13.95557,2.94654,23.959,16.77979,10.00122,13.84277,12.59619,34.75781,5.762,46.437-17.47558,77.78125Q605.93055,874.02619,557.50893,880.03352Zm-33.90137-52.291,27.19336-3.374q19.65966-2.44044,27.67529-16.60254,8.01049-14.15625,5.41748-35.08106-2.85424-23.0039-28.78662-19.792l-28.0166,3.47656Zm6.11377-125.22412,23.01562-2.856q17.57081-2.18042,25.37354-14.61719,7.80468-12.43944,5.47217-31.26367-2.543-20.49316-27.08252-17.45459l-23.68946,2.93994Z" transform="translate(-208.8288 -174.19673)"/><path class="cls-8" d="M807.59926,724.53645l-69.19776,8.58642-3.36767,66.26026,73.21191-9.085q12.12891-1.5044,11.44239,10.05079l-1.915,35.92089q-1.10889,11.606-11.14942,12.85157L681.59584,864.63605q-12.12891,1.5044-11.43408-10.0371L684.359,575.85773q.26514-11.50194,11.11621-12.84912L819.20961,547.6551q11.707-1.45239,11.02441,10.10205l-1.915,35.92041q-.27538,11.50488-11.14941,12.853l-72.793,9.03271-3.08789,60.70264,67.77344-8.40918q11.2954-1.40185,11.44238,10.0498l-2.1748,33.82862Q818.47768,723.18585,807.59926,724.53645Z" transform="translate(-208.8288 -174.19673)"/><path class="cls-8" d="M849.77992,591.01447l1.916-35.92041q.68555-11.55468,11.14844-12.85351l129.80078-16.106q12.12889-1.50513,11.4414,10.0498l-1.91406,35.92041q-.27539,11.5049-11.14941,12.85352l-34.30469,4.25635L944.47816,820.39484q-.23583,11.65724-10.99316,12.98536L893.362,838.35871q-12.0205,1.49268-11.334-10.08887L894.27309,596.9632l-33.04981,4.10108Q849.50453,602.51814,849.77992,591.01447Z" transform="translate(-208.8288 -174.19673)"/><path class="cls-5" d="M748.31842,309.67532s-18.12238-6.59961-46.1186.162c-1.79345,5.77128-5.5355,25.47868-5.5355,25.47868L740.67723,348.14l24.9359-14.38524Z" transform="translate(-208.8288 -174.19673)"/><path class="cls-5" d="M748.3184,309.67532c-10.26039-3.01181-21.17159-3.08276-31.73619-2.02037-.93871.126-3.41066.44468-4.322.56648-.9319.16017-3.33594.59255-4.29206.75815-1.9004.372-3.78325.83272-5.67485,1.24425l.28623-.26838c-1.0813,3.58248-2.09731,8.95471-2.93038,12.66338q-1.31586,6.38013-2.52581,12.78426l-.32821-.53554,22.01159,6.394,21.99316,6.4572-.34177.04117,25.00815-14.2596-.0918.42575c-5.71246-8.024-11.34457-16.14581-17.056-24.25071Zm0,0c5.81836,7.948,11.716,15.87906,17.5333,23.90793l.18964.26173-.2815.16428-24.86328,14.51068-.16058.09371c-11.07383-3.1948-33.14843-9.59695-44.2023-12.84913l-.40882-.11944.08052-.41629c1.69663-8.39628,3.2867-17.24677,5.61459-25.50936l.06846-.2239c1.98375-.40278,3.956-.86246,5.9461-1.22667,13.34311-2.33282,27.44644-2.65839,40.48387,1.40646Z" transform="translate(-208.8288 -174.19673)"/><path class="cls-5" d="M786.84006,403.2193S765.01073,389.75,749.33231,378.854c-8.16568,7.425-35.51221,28.21858-35.51221,28.21858s12.95429,36.06442,13.902,40.36377c3.75327.703,35.6005.36627,45.52355-2.276C773.8545,442.66854,786.84006,403.2193,786.84006,403.2193Z" transform="translate(-208.8288 -174.19673)"/><path class="cls-5" d="M786.84007,403.2193c-12.731-7.76829-25.3895-15.66033-37.69556-24.09492l.40922-.02677c-11.37384,9.99574-23.48516,19.08389-35.452,28.34509l.15606-.52726c4.14472,11.68806,10.4308,28.67955,13.91907,40.42049l-.3689-.35705a110.13685,110.13685,0,0,0,11.32126.31541c11.33733-.26145,22.8901-.21219,34.03219-2.45017l-.23376.23832c3.765-11.98056,9.844-29.8141,13.91247-41.86314Zm0,0c-3.88507,12.13775-9.593,30.01-13.27645,42.01853l-.05616.19518-.17761.04372a79.19359,79.19359,0,0,1-11.34729,1.67679c-7.59875.67842-15.221.94549-22.84625,1.03411a101.91358,101.91358,0,0,1-11.78028-.32926c-.93881-3.47548-2.187-6.95944-3.35782-10.42571-2.21362-6.41292-8.27693-23.59227-10.61571-30.20284l-.11375-.32236.27-.20511c11.8357-9.11725,24.43279-18.51308,35.76994-28.26713,12.29983,8.56715,24.87474,16.74977,37.53139,24.78408Z" transform="translate(-208.8288 -174.19673)"/><path class="cls-5" d="M708.94332,477.85947s-22.14614-3.038-38.40075-16.4208c-5.37389,9.55663-6.688,12.72139-6.688,12.72139s26.39914,28.16761,58.03159,26.38047C717.035,494.87268,708.94332,477.85947,708.94332,477.85947Z" transform="translate(-208.8288 -174.19673)"/><path class="cls-5" d="M708.94331,477.85947c-13.89673-2.15638-27.57055-7.33314-38.6681-16.09586l.634-.11864c-2.26707,4.09782-4.68517,8.43157-6.633,12.69008l-.08846-.48713a103.46507,103.46507,0,0,0,26.30579,19.03931c9.69457,4.8389,20.4811,7.84439,31.37538,7.35019l-.21347.50044c-5.30766-6.9689-8.92763-15.02924-12.71213-22.87839Zm0,0C713.0659,485.705,716.9104,493.899,722.513,500.809a56.95351,56.95351,0,0,1-16.98127-1.4314c-16.04049-3.97136-30.39675-13.30632-42.01031-24.90508l-.20917-.21486.1207-.27277c1.99507-4.31213,4.42906-8.61851,6.74284-12.75234l.243-.42971a69.25981,69.25981,0,0,0,8.9901,6.29852,92.69806,92.69806,0,0,0,29.5344,10.75813Z" transform="translate(-208.8288 -174.19673)"/><path class="cls-5" d="M811.55735,454.79388S801.32183,483.836,761.75482,497.528c7.511-6.80922,17.9481-25.343,22.44893-31.03319C789.34052,465.0578,803.94309,463.709,811.55735,454.79388Z" transform="translate(-208.8288 -174.19673)"/><path class="cls-5" d="M811.55736,454.79388c-5.8172,14.45376-17.42027,26.0366-30.48743,34.19812-2.09659,1.15012-5.27284,3.09957-7.4456,4.05174-1.31652.57395-4.44168,2.20668-5.78046,2.64641-1.30774.514-4.59093,1.7853-5.92615,2.30836l-2.40522.93671,1.908-1.77612c9.14305-8.8949,14.89643-21.1133,22.6878-31.00564,9.68414-2.1046,20.4382-3.65289,27.44907-11.35958Zm0,0c-4.96831,5.88179-12.58989,8.63192-19.88808,10.358-2.45787.59929-4.96538,1.043-7.36995,1.68425l.18231-.12133c-1.90158,2.529-3.59149,5.25313-5.33062,7.93076-5.31832,8.00358-10.15478,16.45683-17.06159,23.25142l-.49734-.83946,3.92166-1.504c3.03581-1.05307,6.68591-2.87329,9.6-4.23943,1.14726-.64306,4.3054-2.40981,5.49685-3.077,1.71006-1.07657,3.56828-2.33753,5.27378-3.444,10.76971-7.72007,20.281-17.76167,25.673-29.9991Z" transform="translate(-208.8288 -174.19673)"/><path class="cls-5" d="M667.93591,355.45791s-21.63484.92251-27.86736,5.10884c-3.35165,5.24706-9.95464,31.39459-9.77267,40.28829,5.64872,9.30171,14.92519,20.98846,17.80606,22.04919.09415-1.26154,15.50918-20.83134,25.80885-28.5199C671.76428,389.14978,666.21608,367.16971,667.93591,355.45791Z" transform="translate(-208.8288 -174.19673)"/><path class="cls-5" d="M667.93591,355.45791c-4.74647.29077-9.48167.77531-14.17776,1.48649-4.5781.81246-9.49106,1.48546-13.53023,3.85938-2.78856,5.63052-4.60335,13.1145-6.20216,19.62046-1.51454,6.69522-3.116,13.56283-3.26805,20.42123,1.98291,2.84854,5.2518,8.046,8.0109,11.446,2.897,3.50473,5.67017,7.69249,9.49876,10.16293l-.64361.414c.599-1.608,1.831-2.85054,2.79365-4.241,2.94989-3.83834,6.07356-7.535,9.30153-11.14007a103.286,103.286,0,0,1,13.97876-13.38821l-.11637.42027a114.45371,114.45371,0,0,1-4.71122-19.30227c-.97969-6.51714-1.84286-13.18857-.9342-19.75914Zm0,0c-.76163,6.57906.24528,13.2051,1.36642,19.68447a117.08278,117.08278,0,0,0,5.03731,19.36262,108.26347,108.26347,0,0,0-13.96517,13.56875c-4.11371,4.76322-8.43925,9.58009-11.79443,14.86606l-.6439.41438a11.04672,11.04672,0,0,1-2.96854-2.28613,79.2858,79.2858,0,0,1-6.97939-8.17952A139.31474,139.31474,0,0,1,629.833,400.9836a62.86792,62.86792,0,0,1,1.1955-10.54458,178.69641,178.69641,0,0,1,4.97133-20.2706,51.41872,51.41872,0,0,1,3.82779-9.75544,21.51247,21.51247,0,0,1,6.84143-2.55509,127.21278,127.21278,0,0,1,21.26687-2.4Z" transform="translate(-208.8288 -174.19673)"/><path class="cls-5" d="M809.70322,351.77928l-11.19162-.10961s8.44855,23.76324,9.01658,39.79958c-.029,1.68651,13.98367,9.4361,18.01887,20.04923C826.383,411.95462,828.678,376.56686,809.70322,351.77928Z" transform="translate(-208.8288 -174.19673)"/><path class="cls-5" d="M809.7032,351.77928l-11.19305.05077.15261-.214c1.94214,5.35193,3.615,10.79323,5.108,16.28773a113.46209,113.46209,0,0,1,4.17994,23.12845c.02735.33193-.02755.43766.21685.71325,2.20274,2.22273,4.89917,3.9904,7.26172,6.13183,4.30181,3.76186,8.46549,8.02521,10.5663,13.47051l-.22744-.25533a.43491.43491,0,0,0-.56463.13961c.81653-5.0622.36427-10.28283-.02294-15.37675-1.53493-15.62259-6.08233-31.28555-15.4774-44.07606Zm0,0c9.84083,12.50817,14.72031,28.31228,16.35227,43.9905.38835,5.25228.99646,10.67943.00842,15.88695-.066.0881-.09284.209-.29447.29733a.56091.56091,0,0,1-.44329-.00961l-.16346-.08812-.06424-.16739c-2.06507-5.22991-6.13391-9.40248-10.29518-13.09279-2.35505-2.16569-5.07937-3.94058-7.34317-6.28663a1.59175,1.59175,0,0,1-.39238-.99642l-.01608-.26286a122.065,122.065,0,0,0-3.91153-22.98122q-2.14383-8.357-4.85217-16.56515l.22534.00543,11.18994.27Z" transform="translate(-208.8288 -174.19673)"/><path class="cls-5" d="M631.00035,397.36827c-.08149-76.102,81.85809-122.18371,148.61969-87.95581a104.51806,104.51806,0,0,1,54.64,114.09586c-8.50117,43.48365-48.57166,78.8806-92.78519,79.534a108.18664,108.18664,0,0,0,26.36616-8.99186c43.51978-21.29023,65.8937-72.18265,50.23107-118.18011a94.2886,94.2886,0,0,0-24.2405-38.11536c-58.69533-54.90464-151.06589-18.61057-162.83118,59.61331Z" transform="translate(-208.8288 -174.19673)"/></svg>